<svg id="visual" viewBox="0 0 960 349" width="960" height="349" xmlns="http://www.w3.org/2000/svg" xmlns:xlink="http://www.w3.org/1999/xlink" version="1.1"><rect x="0" y="0" width="960" height="349" fill="#FBF4E2"></rect><path d="M0 80L16 81.3C32 82.7 64 85.3 96 75.3C128 65.3 160 42.7 192 36.2C224 29.7 256 39.3 288 57.7C320 76 352 103 384 99.7C416 96.3 448 62.7 480 66C512 69.3 544 109.7 576 130.3C608 151 640 152 672 151.5C704 151 736 149 768 139.3C800 129.7 832 112.3 864 113.3C896 114.3 928 133.7 944 143.3L960 153L960 0L944 0C928 0 896 0 864 0C832 0 800 0 768 0C736 0 704 0 672 0C640 0 608 0 576 0C544 0 512 0 480 0C448 0 416 0 384 0C352 0 320 0 288 0C256 0 224 0 192 0C160 0 128 0 96 0C64 0 32 0 16 0L0 0Z" fill="#8a5c42" stroke-linecap="round" stroke-linejoin="miter"></path></svg>